HIERARCHY
ROOT Hips
{
  OFFSET -331.093 83.8371 -317.828
  CHANNELS 6 Xposition Yposition Zposition Zrotation Xrotation Yrotation
  JOINT LeftUpLeg
  {
    OFFSET 8.64259 1.95398 -2.38835
    CHANNELS 3 Zrotation Xrotation Yrotation
    JOINT LeftLeg
    {
      OFFSET 43.7702 0 0
      CHANNELS 3 Zrotation Xrotation Yrotation
      JOINT LeftFoot
      {
        OFFSET 40.6238 0 0
        CHANNELS 3 Zrotation Xrotation Yrotation
        JOINT LeftToeBase
        {
          OFFSET 12.7242 0 0
          CHANNELS 3 Zrotation Xrotation Yrotation
          End Site
          {
            OFFSET 0 0 0
          }
        }
      }
    }
  }
  JOINT RightUpLeg
  {
    OFFSET -8.2249 1.95398 -2.59336
    CHANNELS 3 Zrotation Xrotation Yrotation
    JOINT RightLeg
    {
      OFFSET 43.5653 0 0
      CHANNELS 3 Zrotation Xrotation Yrotation
      JOINT RightFoot
      {
        OFFSET 40.6238 0 0
        CHANNELS 3 Zrotation Xrotation Yrotation
        JOINT RightToeBase
        {
          OFFSET 12.7242 0 0
          CHANNELS 3 Zrotation Xrotation Yrotation
          End Site
          {
            OFFSET 0 0 0
          }
        }
      }
    }
  }
  JOINT Spine
  {
    OFFSET 0.165834 0.87714 6.61349
    CHANNELS 3 Zrotation Xrotation Yrotation
    JOINT Spine1
    {
      OFFSET 7.38963 1.71661e-005 0
      CHANNELS 3 Zrotation Xrotation Yrotation
      JOINT Spine2
      {
        OFFSET 11.9445 1.14441e-005 0
        CHANNELS 3 Zrotation Xrotation Yrotation
        JOINT Spine3
        {
          OFFSET 14.7254 4.19617e-005 0
          CHANNELS 3 Zrotation Xrotation Yrotation
          JOINT Spine4
          {
            OFFSET 10.9679 0 0
            CHANNELS 3 Zrotation Xrotation Yrotation
            JOINT RightShoulder
            {
              OFFSET 2.46616 -1.6653 3.69651
              CHANNELS 3 Zrotation Xrotation Yrotation
              JOINT RightArm
              {
                OFFSET 13.0012 0 0
                CHANNELS 3 Zrotation Xrotation Yrotation
                JOINT RightForeArm
                {
                  OFFSET 28.7848 1.62311e-005 0
                  CHANNELS 3 Zrotation Xrotation Yrotation
                  JOINT RightHand
                  {
                    OFFSET 26.5688 1.62095e-005 0
                    CHANNELS 3 Zrotation Xrotation Yrotation
                    End Site
                    {
                      OFFSET 0 0 0
                    }
                  }
                }
              }
            }
            JOINT LeftShoulder
            {
              OFFSET 2.38034 -1.29275 -3.7523
              CHANNELS 3 Zrotation Xrotation Yrotation
              JOINT LeftArm
              {
                OFFSET 16.3182 6.07031e-005 0
                CHANNELS 3 Zrotation Xrotation Yrotation
                JOINT LeftForeArm
                {
                  OFFSET 27.0901 0 0
                  CHANNELS 3 Zrotation Xrotation Yrotation
                  JOINT LeftHand
                  {
                    OFFSET 24.5451 1.51738e-005 0
                    CHANNELS 3 Zrotation Xrotation Yrotation
                    End Site
                    {
                      OFFSET 0 0 0
                    }
                  }
                }
              }
            }
            JOINT Neck
            {
              OFFSET 5.0226 -0.0266342 0
              CHANNELS 3 Zrotation Xrotation Yrotation
              JOINT Head
              {
                OFFSET 6.69364 2.86102e-005 0
                CHANNELS 3 Zrotation Xrotation Yrotation
                End Site
                {
                  OFFSET 0 0 0
                }
              }
            }
          }
        }
      }
    }
  }
}
MOTION
Frames:	7
Frame Time:	0.0416667
-58.04 94.0527 -219.574 82.7779 -83.943 80.568 -175.586 -7.18843 87.3045 -27.2712 23.8712 0.546239 66.7285 8.08316 8.74102 54.7979 19.5595 -1.35222 176.531 29.5358 90.2741 -11.5118 -1.27146 -1.41657 61.287 -1.03158 -0.506643 46.3748 -3.15008 -10.1508 -1.38065 7.51816 -89.9274 11.8443 -2.71137 0.433421 0.176013 -2.68966 0.552416 -22.3816 -2.7162 -0.402118 -2.36891 -2.71619 -0.402109 90.6708 -43.3063 -100.983 36.7947 -14.4839 23.0731 -9.63215 -18.1301 -37.9318 -1.08046 -0.177077 1.74813 -94.6656 -45.8734 71.055 -10.6776 6.34673 -10.8827 9.98378 4.12709 -56.6112 14.8217 1.16965 3.94997 3.02917 1.71984 -0.152881 -3.97481 1.66064 3.51047 
-58.8275 93.0321 -208.098 95.2327 -84.4182 96.6836 -173.182 -9.9581 93.6322 -33.8655 24.4559 2.02531 59.3899 -0.613913 0.0745618 53.9726 25.7699 9.85963 177.018 31.3757 94.44 -28.498 2.06991 -0.896251 60.3398 0.0531921 0.0262756 38.8838 -1.87475 -8.16938 -1.32605 7.55306 -90.5107 11.7663 -2.87727 -0.713973 0.0984719 -2.90589 -0.586554 -22.4565 -2.52959 -1.54615 -2.44382 -2.52959 -1.54616 90.4864 -43.1026 -101.341 35.1714 -14.0827 22.3014 -9.20527 -19.5547 -35.349 -0.736179 -0.154817 2.42848 -95.7743 -47.7303 69.9654 -12.5691 5.25827 -7.15208 9.98179 4.23987 -56.6363 15.1068 1.25372 4.35925 3.21951 2.17441 1.45026 -4.94496 1.78746 4.23987 
-59.7672 92.9846 -197.966 116.027 -85.7573 118.398 -171.806 -3.83678 96.3967 -48.2489 23.1314 1.94805 46.2039 -10.2018 -5.97387 31.5419 8.25367 20.7764 176.868 29.2548 97.5635 -39.3475 2.80667 -1.10209 66.983 -1.98149 -1.2984 30.2997 -0.498018 -3.58235 -1.0325 7.5442 -90.6049 11.7764 -2.33761 -0.958633 0.107263 -2.37754 -0.854783 -22.4376 -1.94144 -1.61701 -2.42491 -1.94144 -1.61701 90.2899 -42.6749 -101.781 34.9941 -13.8262 18.9988 -8.29148 -19.301 -33.6799 -0.59831 -0.142056 2.52863 -96.5096 -48.481 69.1138 -15.821 7.36431 -2.95297 9.66563 5.7739 -53.0529 15.3764 1.3796 5.02487 3.66703 2.05111 2.3445 -6.7973 1.51889 2.44039 
-60.2348 94.9205 -188.429 128.791 -86.0996 131.037 -171.686 7.89898 95.8033 -60.887 16.1815 1.6292 49.4527 -7.14861 -0.240014 33.254 8.08087 15.2018 177.03 21.4925 98.4696 -38.3504 2.47548 -1.85202 70.8042 -3.51173 -2.0915 27.7057 -0.265706 -2.65432 -0.64335 7.54789 -90.497 11.7743 -1.51298 -0.831047 0.104019 -1.54809 -0.763656 -22.434 -1.19329 -1.24736 -2.4213 -1.19329 -1.24736 90.6425 -41.2411 -101.576 36.4391 -12.9776 14.4054 -9.45549 -16.7526 -37.3599 -1.40951 -0.181935 2.2491 -97.6391 -49.5377 67.8043 -17.7451 10.1951 -0.642376 7.95479 8.93245 -45.0599 13.4465 0.989643 3.40668 3.41 0.984482 1.93978 -6.90096 0.555377 2.02863 
-60.6278 96.8683 -179.43 158.481 -87.175 158.549 -171.631 16.845 92.2993 -57.165 13.6085 -0.229056 54.6198 -4.16593 -0.575132 37.9437 13.9617 17.8756 177.382 13.1768 97.4636 -34.0183 1.56509 -3.80123 72.2675 -3.91801 -2.32023 30.1604 -0.157717 -1.08779 -0.193472 7.51573 -90.1083 11.8429 -0.435611 -0.169403 0.17199 -0.442653 -0.150074 -22.3634 -0.364572 -0.292495 -2.35074 -0.364565 -0.292495 90.7298 -40.2531 -101.696 35.9437 -14.4509 8.88583 -9.88793 -12.9882 -42.9622 -4.74756 -0.351033 1.71658 -97.6015 -49.7808 67.9414 -21.6563 9.81559 3.26835 6.99449 13.5105 -37.5526 12.9617 0.95623 3.4023 2.22164 0.421754 1.68294 -6.22868 0.0943285 1.48974 
-60.6134 97.8576 -171.052 -137.782 -87.0575 -138.581 -172.755 21.9284 90.7215 -40.3076 8.52787 -1.95732 59.3534 -0.816351 -0.197732 38.8515 16.2671 20.735 176.73 6.30472 95.8646 -30.2482 -3.82103 -4.58419 72.1872 -4.17722 -2.41678 33.6598 -0.713054 -3.76968 0.2922 7.48171 -89.9087 11.9101 0.624076 0.115048 0.239315 0.628531 0.087469 -22.2968 0.560638 0.297292 -2.28414 0.56064 0.297292 90.5599 -38.0137 -102.639 34.0165 -14.9229 2.84548 -11.7221 -11.0712 -50.295 -5.20252 -0.292076 -0.809844 -97.4993 -50.2535 68.2467 -24.807 7.71499 8.97201 6.78369 16.7659 -33.6858 10.1746 0.749222 3.24095 2.17905 0.568447 2.91446 -6.19707 0.0939327 0.158413 
-60.1592 97.6075 -162.667 -98.8711 -84.7545 -99.3779 -176.366 21.2162 91.6838 -10.9035 3.96496 -1.26771 58.3545 1.32117 1.30042 41.6302 20.9414 23.5257 175.414 0.70259 94.5568 -27.5195 -7.75011 -4.58191 73.7337 -5.54674 -2.95752 35.6719 -0.761161 -3.56269 0.683657 7.41325 -89.8837 12.0477 1.41411 0.0773598 0.377548 1.41614 0.0150274 -22.1632 1.32547 0.498859 -2.15054 1.32547 0.49885 91.2322 -36.1924 -101.968 29.6873 -16.5244 -5.55921 -13.4034 -9.97393 -55.249 -5.69089 -0.314464 -0.716138 -97.0384 -50.9629 69.1434 -26.9354 6.24567 14.1988 7.12066 19.6151 -32.1582 7.76978 0.624927 3.67949 3.12171 1.29256 4.80395 -6.39312 0.521734 -1.21063 
